# xmcd CD database file
#
# Track frame offsets:
#	150
#	22525
#	44477
#	61210
#	82494
#	104413
#	123650
#	147592
#	165681
#	190502
#	210355
#	229747
#	247909
#	263942
#	283393
#
# Disc length: 4127 seconds
#
# Revision: 3
# Processed by: cddbd v1.5.1PL0 Copyright (c) Steve Scherf et al.
# Submitted via: CDex 1.51
#
DISCID=d9101d0f
DTITLE=Gregorian - Lovesongs  CD 1/2
DYEAR=2001
DGENRE=Celtic
TTITLE0=Lady In Red
TTITLE1=The Reasson
TTITLE2=Michelle
TTITLE3=Tell Him
TTITLE4=Angels
TTITLE5=Nowhere Man
TTITLE6=When I Need You
TTITLE7=Beauty And The Beast
TTITLE8=The Power Of Love
TTITLE9=Perhaps Love
TTITLE10=Across The Universe
TTITLE11=Hard to Say I´m Sorry
TTITLE12=Imagine
TTITLE13=Falling Into You
TTITLE14=When You Say Nothing At All
EXTD=YEAR: 2001
EXTT0=
EXTT1=
EXTT2=
EXTT3=
EXTT4=
EXTT5=
EXTT6=
EXTT7=
EXTT8=
EXTT9=
EXTT10=
EXTT11=
EXTT12=
EXTT13=
EXTT14=
PLAYORDER=
